<svg width="24" height="24" viewBox="0 0 24 24" fill="none" xmlns="http://www.w3.org/2000/svg">
<path d="M21.4222 10.2448C18.9895 6.96291 15.4609 5 11.9827 5C8.50442 5 5.187 6.87982 2.57328 10.2864C1.81932 11.273 1.81932 12.7478 2.57328 13.776C4.98595 17.089 8.424 19 11.9927 19C15.5615 19 19.0096 17.089 21.4423 13.7552C22.1963 12.7166 22.1963 11.273 21.4423 10.2448H21.4222ZM19.4217 12.1869C17.4715 14.8665 14.7572 16.3932 11.9827 16.3932C9.20811 16.3932 6.51397 14.8665 4.57378 12.2077C4.50341 12.1039 4.50341 11.9481 4.54363 11.8961C6.67481 9.12315 9.30864 7.59644 11.9827 7.59644C14.6567 7.59644 17.4715 9.17507 19.4217 11.8131C19.4921 11.9065 19.4921 12.0831 19.4217 12.1869Z" fill="black" fill-opacity="0.9"/>
<path d="M11.9929 14.0357C13.1033 14.0357 14.0035 13.1057 14.0035 11.9585C14.0035 10.8113 13.1033 9.88135 11.9929 9.88135C10.8825 9.88135 9.98237 10.8113 9.98237 11.9585C9.98237 13.1057 10.8825 14.0357 11.9929 14.0357Z" fill="black" fill-opacity="0.9"/>
</svg>
