<svg width="24" height="24" viewBox="0 0 24 24" fill="none" xmlns="http://www.w3.org/2000/svg">
<path fill-rule="evenodd" clip-rule="evenodd" d="M18.1816 4.02002C19.313 4.02002 19.9298 4.02045 20.5156 4.30615C21.0305 4.56231 21.4445 4.966 21.707 5.46826C21.9999 6.03961 22 6.64048 22 7.74365V8.89697C21.9998 9.38943 21.5958 9.78369 21.0908 9.78369H21.0811C19.8285 9.78369 18.8076 10.7789 18.8076 12.0005C18.8079 13.2219 19.8287 14.2163 21.0811 14.2163C21.5859 14.2164 21.9901 14.6107 21.9902 15.103V16.2563C21.9902 17.3594 21.9901 17.9604 21.6973 18.5317C21.4346 19.0342 21.02 19.4377 20.5049 19.6938C19.9291 19.9796 19.3029 19.98 18.1816 19.98H5.81836C4.68705 19.98 4.07023 19.9796 3.48438 19.6938C2.96949 19.4377 2.5555 19.034 2.29297 18.5317C2.00008 17.9604 2 17.3595 2 16.2563V15.103C2.00018 14.6106 2.40424 14.2163 2.90918 14.2163C4.1615 14.2163 5.18138 13.2219 5.18164 12.0005C5.18164 10.7789 4.16166 9.78374 2.90918 9.78369C2.40423 9.78369 2.00016 9.38943 2 8.89697V7.74365C2 6.64048 2.00007 6.03961 2.29297 5.46826C2.55559 4.96583 2.96988 4.5623 3.49512 4.30615C4.07087 4.02045 4.69715 4.02002 5.81836 4.02002H18.1816ZM15.7012 8.86865C15.0807 8.56618 14.3227 8.81882 14.0078 9.43311L11.9873 13.3735C11.6726 13.9878 11.9206 14.7311 12.541 15.0337C13.1614 15.3362 13.9194 15.0833 14.2344 14.4692L16.2549 10.5288C16.5698 9.91447 16.3217 9.17125 15.7012 8.86865ZM10.6504 8.86865C10.0299 8.56618 9.27194 8.81882 8.95703 9.43311L7.94727 11.4028C7.63239 12.0171 7.87972 12.7603 8.5 13.063C9.1205 13.3656 9.8794 13.1129 10.1943 12.4985L11.2041 10.5288C11.519 9.91447 11.2709 9.17125 10.6504 8.86865Z" fill="black" fill-opacity="0.9"/>
</svg>
