<svg width="24" height="24" viewBox="0 0 24 24" fill="none" xmlns="http://www.w3.org/2000/svg">
<path d="M5.17131 10.86L9.14366 6.73C9.89411 5.95 10.9047 5.52 11.9954 5.52C13.086 5.52 14.0966 5.95 14.847 6.73L18.8294 10.87C19.0796 11.13 19.4097 11.26 19.7399 11.26C20.0701 11.26 20.3703 11.14 20.6105 10.91C21.1108 10.43 21.1308 9.63 20.6505 9.13L16.6681 4.99C15.4374 3.71 13.7764 3 11.9954 3C10.2143 3 8.55331 3.71 7.32259 4.99L3.35023 9.11C2.86995 9.61 2.87995 10.41 3.39025 10.89C3.90056 11.37 4.69103 11.36 5.17131 10.85V10.86Z" fill="black" fill-opacity="0.9"/>
<path d="M14.5768 9.26C13.9165 8.54 12.9759 8.13 12.0053 8.13C11.0347 8.13 10.0942 8.54 9.4338 9.26L3.99057 15.15C3.04001 16.19 2.79987 17.63 3.3602 18.91C3.93054 20.2 5.15126 21 6.5621 21H17.4385C18.8494 21 20.0701 20.2 20.6404 18.91C21.2108 17.62 20.9706 16.18 20.0101 15.15L14.5768 9.26ZM18.3291 17.9C18.249 18.07 18.0089 18.48 17.4385 18.48H6.5621C5.99176 18.48 5.75162 18.07 5.67157 17.9C5.59152 17.73 5.46144 17.28 5.84167 16.86L11.2749 10.97C11.465 10.77 11.7152 10.66 11.9853 10.66C12.2555 10.66 12.5156 10.77 12.6957 10.97L18.129 16.86C18.5192 17.28 18.3791 17.73 18.2991 17.9H18.3291Z" fill="black" fill-opacity="0.9"/>
</svg>
