<svg width="24" height="24" viewBox="0 0 24 24" fill="none" xmlns="http://www.w3.org/2000/svg">
<path d="M12 21.9901C6.4906 21.9901 2 17.5094 2 11.9901C2 6.47082 6.4906 2 12 2C12.6825 2 13.2364 2.55391 13.2364 3.2364C13.2364 3.91889 12.6825 4.4728 12 4.4728C7.85559 4.4728 4.4728 7.8457 4.4728 12C4.4728 16.1543 7.8457 19.5272 12 19.5272C15.0465 19.5272 17.7765 17.7072 18.9535 14.8981C19.3393 13.9782 19.5272 13.0089 19.5272 12C19.5272 11.3175 20.0811 10.7636 20.7636 10.7636C21.4461 10.7636 22 11.3175 22 12C22 13.3353 21.7428 14.6311 21.2285 15.8477C19.6657 19.5865 16.0455 22 12 22V21.9901Z" fill="black" fill-opacity="0.9"/>
<path d="M12 14.5025C11.7231 14.5025 11.4461 14.4134 11.2186 14.2156L8.52819 12C8.00396 11.5648 7.92483 10.7834 8.36004 10.2591C8.79526 9.7349 9.57666 9.65577 10.1009 10.091L11.9011 11.5747L17.5193 5.75864C17.9941 5.26408 18.7755 5.25418 19.27 5.72896C19.7646 6.20374 19.7745 6.98514 19.2997 7.4797L12.8902 14.1167C12.6528 14.364 12.3264 14.4926 12 14.4926V14.5025Z" fill="black" fill-opacity="0.9"/>
</svg>
